<?xml version="1.0" encoding="UTF-8"?><svg id="Layer_1" xmlns="http://www.w3.org/2000/svg" width="2.55in" height="1.09in" viewBox="0 0 183.64 78.24"><defs><style>.cls-1{fill:#fff;}.cls-2{fill:#e65925;}</style></defs><path class="cls-1" d="M16.65,77.73v-1.36c1.46-.13,2.33-.25,2.6-.36.27-.11.5-.31.68-.59.18-.28.27-.69.27-1.25v-9.56H7.64v9.32c0,.77.23,1.34.7,1.71.47.37,1.39.61,2.78.73v1.36H0v-1.36c1.73-.08,2.76-.31,3.1-.7.34-.39.51-.89.51-1.49v-19.35c0-1.51-1.2-2.37-3.61-2.57v-1.34h11.11v1.34c-1.32.11-2.23.32-2.73.6-.5.29-.75.88-.75,1.76v8.34h12.57v-8.13c0-1.51-1.18-2.37-3.55-2.57v-1.34h11.11v1.34c-1.34.11-2.26.32-2.77.62s-.77.88-.77,1.74v19.32c0,.79.26,1.37.77,1.73s1.43.6,2.77.71v1.36h-11.11Z"/><path class="cls-1" d="M43.7,73.36c-1.74,3.25-4.29,4.88-7.65,4.88-2.8,0-4.98-.92-6.55-2.75s-2.35-4.25-2.35-7.25c0-2.65.8-4.92,2.39-6.82,1.59-1.9,3.63-2.85,6.11-2.85s4.34.72,5.64,2.15c1.3,1.43,1.96,3.39,1.96,5.87v1.25h-12.36c0,2.65.54,4.69,1.62,6.14,1.08,1.45,2.62,2.17,4.62,2.17,1.11,0,2.06-.25,2.84-.74.79-.49,1.6-1.44,2.43-2.85l1.3.81ZM39.52,66.24c0-4.16-1.3-6.24-3.91-6.24-1.31,0-2.41.55-3.29,1.66-.88,1.11-1.36,2.63-1.44,4.57h8.64Z"/><path class="cls-1" d="M62.68,77.39c-1.31.48-2.33.72-3.06.72-1.98,0-3.14-.9-3.5-2.7h-.11c-1.68,1.87-3.69,2.8-6.03,2.8-1.4,0-2.55-.43-3.45-1.28-.9-.85-1.35-1.98-1.35-3.37,0-1.56.43-2.76,1.29-3.58.86-.82,2.33-1.58,4.42-2.28,2.99-.98,4.71-1.61,5.16-1.89v-1.85c0-1.08-.3-2.02-.9-2.81-.6-.79-1.48-1.18-2.66-1.18s-2.1.3-2.67.89c0,.32.06.69.17,1.12.11.43.17.88.17,1.36s-.22.9-.65,1.24c-.43.33-.97.5-1.6.5-1.21,0-1.81-.72-1.81-2.15,0-1.12.71-2.13,2.12-3.01,1.41-.89,2.91-1.33,4.5-1.33,2.58,0,4.38.51,5.39,1.52,1.01,1.01,1.51,2.56,1.51,4.64l-.11,9.32c0,.68.16,1.18.48,1.51.32.33.61.51.87.56.26.04.87.07,1.82.07v1.21ZM56.08,67.39c-2.75.81-4.62,1.64-5.61,2.49-1,.86-1.49,1.92-1.49,3.19,0,2.02.96,3.02,2.89,3.02,1.49,0,2.85-.72,4.1-2.17l.11-6.54Z"/><path class="cls-1" d="M63.76,77.73v-1.25l.95-.09c1.23-.08,1.85-.69,1.85-1.83v-19.53c0-.59-.2-1.18-.6-1.76-.4-.58-1.45-.93-3.17-1.06v-1.25l7.01-.42.26.26v23.52c0,1.29.93,2,2.8,2.15v1.25h-9.11Z"/><path class="cls-1" d="M85.41,76.92c-1.81.79-3.49,1.19-5.03,1.19-2.85,0-4.27-1.49-4.27-4.48v-12.66h-3.36v-1.78h3.46v-5.8h3.44v5.8h5.33v1.78h-5.29v10.41c0,1.73.2,2.9.59,3.53.39.62,1.2.94,2.44.94,1.07,0,1.97-.11,2.7-.32v1.4Z"/><path class="cls-1" d="M98.57,77.73v-1.25c.35-.04.68-.07.98-.09,1.26-.08,1.89-.69,1.89-1.83v-9.6c0-1.25-.3-2.25-.9-3.01-.6-.76-1.37-1.13-2.32-1.13-2.15,0-3.77.95-4.84,2.84v10.72c0,1.27.96,1.98,2.87,2.12v1.25h-9.15v-1.25l.93-.09c1.22-.09,1.83-.7,1.83-1.83v-19.64c0-.49-.12-.97-.37-1.45s-.56-.78-.94-.92c-.38-.14-1.16-.25-2.34-.34v-1.25l6.9-.42.26.26v10.93h.08c1.37-1.39,2.51-2.26,3.42-2.63.91-.37,1.88-.55,2.93-.55,3.45,0,5.18,2.05,5.18,6.16v9.68c0,1.25.91,1.94,2.72,2.08v1.25h-9.15Z"/><path class="cls-1" d="M124.06,73.4c-.79,1.44-1.87,2.6-3.24,3.5-1.37.89-2.79,1.34-4.28,1.34-2.7,0-4.81-.9-6.33-2.69-1.52-1.8-2.29-4.21-2.29-7.23,0-2.67.83-4.96,2.5-6.88,1.67-1.92,3.79-2.87,6.36-2.87,1.9,0,3.41.45,4.52,1.35,1.11.9,1.66,2.08,1.66,3.53,0,1.6-.64,2.4-1.93,2.4-.73,0-1.31-.18-1.73-.55-.42-.37-.63-.79-.63-1.27,0-.5.08-1.07.23-1.7.15-.64.25-1.1.28-1.36-.37-.64-1.19-.96-2.48-.96-1.42,0-2.59.7-3.51,2.11-.91,1.41-1.37,3.42-1.37,6.06,0,2.38.53,4.31,1.58,5.77,1.05,1.47,2.41,2.2,4.07,2.2,2.15,0,3.93-1.18,5.33-3.55l1.25.81Z"/><path class="cls-1" d="M142.61,77.39c-1.31.48-2.33.72-3.06.72-1.98,0-3.14-.9-3.5-2.7h-.11c-1.68,1.87-3.69,2.8-6.03,2.8-1.4,0-2.55-.43-3.45-1.28-.9-.85-1.35-1.98-1.35-3.37,0-1.56.43-2.76,1.29-3.58.86-.82,2.33-1.58,4.42-2.28,2.99-.98,4.71-1.61,5.16-1.89v-1.85c0-1.08-.3-2.02-.9-2.81-.6-.79-1.48-1.18-2.66-1.18s-2.1.3-2.67.89c0,.32.06.69.17,1.12.11.43.17.88.17,1.36s-.22.9-.65,1.24c-.43.33-.97.5-1.6.5-1.21,0-1.81-.72-1.81-2.15,0-1.12.71-2.13,2.12-3.01,1.41-.89,2.91-1.33,4.5-1.33,2.58,0,4.38.51,5.39,1.52,1.01,1.01,1.51,2.56,1.51,4.64l-.11,9.32c0,.68.16,1.18.48,1.51.32.33.61.51.87.56.26.04.87.07,1.82.07v1.21ZM136.01,67.39c-2.75.81-4.62,1.64-5.61,2.49-1,.86-1.49,1.92-1.49,3.19,0,2.02.96,3.02,2.89,3.02,1.49,0,2.85-.72,4.1-2.17l.11-6.54Z"/><path class="cls-1" d="M154.29,60.78c-1.66.09-3.04,1-4.12,2.74v10.85c0,.68.22,1.18.65,1.49.43.32,1.41.52,2.92.62v1.25h-9.83v-1.25l.91-.09c1.22-.09,1.83-.7,1.83-1.83v-11.49c0-1.64-.98-2.49-2.95-2.55v-1.25l6.2-.38.26.26v2.59h.09c1.63-2.07,3.36-3.1,5.22-3.1.79,0,1.44.26,1.95.77.5.51.76,1.21.76,2.11,0,.72-.17,1.3-.52,1.76-.35.45-.82.68-1.41.68-.66,0-1.18-.17-1.58-.5-.4-.33-.6-.75-.6-1.24,0-.38.07-.86.21-1.44Z"/><path class="cls-1" d="M174.84,73.36c-1.74,3.25-4.29,4.88-7.65,4.88-2.8,0-4.98-.92-6.55-2.75s-2.35-4.25-2.35-7.25c0-2.65.8-4.92,2.39-6.82,1.59-1.9,3.63-2.85,6.11-2.85s4.34.72,5.64,2.15c1.3,1.43,1.96,3.39,1.96,5.87v1.25h-12.36c0,2.65.54,4.69,1.62,6.14,1.08,1.45,2.62,2.17,4.62,2.17,1.11,0,2.06-.25,2.84-.74.79-.49,1.6-1.44,2.43-2.85l1.3.81ZM170.67,66.24c0-4.16-1.3-6.24-3.91-6.24-1.31,0-2.41.55-3.29,1.66-.88,1.11-1.36,2.63-1.44,4.57h8.64Z"/><path class="cls-1" d="M9.45,18.19h18.91c.22,0,.39-.18.39-.39V1.62c0-.45.37-.82.82-.82h6.96c.45,0,.82.37.82.82v41.53c0,.45-.37.82-.82.82h-6.96c-.45,0-.82-.37-.82-.82v-16.55c0-.22-.18-.39-.39-.39H9.45c-.22,0-.39.18-.39.39v16.55c0,.45-.37.82-.82.82H1.27c-.45,0-.82-.37-.82-.82V1.62c0-.45.37-.82.82-.82h7.02c.42,0,.77.34.77.77v16.23c0,.22.18.39.39.39Z"/><path class="cls-1" d="M82.64,12.97l-5.78,3.14c-.35.22-.8.13-1.04-.21s-.88-1.48-2.49-3.44c-2.31-2.8-5.69-4.21-9.64-4.21-7.6,0-13.22,5.74-13.22,14.12.03,8.67,5.83,14.12,13.22,14.12,3.71,0,6.83-1.43,9.27-3.87,1.03-1.03,2.3-3.06,2.73-3.69.24-.36.74-.41,1.08-.16l6.09,2.9c.36.26.41.76.18,1.14-.28.47-1.71,3.18-2.98,4.67-3.83,4.5-9.52,7.28-16.3,7.28-12.89,0-21.99-9.41-21.99-22.39S50.86,0,63.75,0c7.06,0,13.25,3.03,16.87,8.18,1.79,2.55,2.1,3.38,2.27,3.65.24.39.13.9-.25,1.14Z"/><path class="cls-1" d="M126.91,42.94L110.69,1.28c-.11-.29-.39-.48-.71-.48h-9.45c-.31,0-.59.19-.71.48l-16.22,41.66c-.19.5.17,1.03.71,1.03h7.34c.32,0,.6-.2.71-.49l3.48-9.3c.06-.16.21-.26.37-.26h6.54c3.91-.21,6.56-3.47,6.55-7.47,0-.25-.22-.46-.47-.46h-9.36c-.28,0-.47-.28-.37-.54l5.68-15.14c.13-.35.62-.35.75,0l12.39,33.17c.11.3.39.49.71.49h7.55c.53,0,.9-.54.71-1.03Z"/><path class="cls-2" d="M136.29,29.83h4.89c1.92,0,3.48,1.56,3.48,3.48v4.89c0,3,2.44,5.85,5.44,5.84.18,0,.33-.16.33-.34v-12.22c0-4.1-3.32-7.42-7.42-7.42h-12.22c-.18,0-.34.15-.34.33,0,3,2.84,5.44,5.84,5.44Z"/><path class="cls-2" d="M136.29,14.33h4.89c1.92,0,3.48-1.56,3.48-3.48v-4.89c0-3,2.44-5.85,5.44-5.84.18,0,.33.16.33.34v12.22c0,4.1-3.32,7.42-7.42,7.42h-12.22c-.18,0-.34-.15-.34-.33,0-3,2.84-5.44,5.84-5.44Z"/><path class="cls-2" d="M168.52,29.83h-4.89c-1.92,0-3.48,1.56-3.48,3.48v4.89c0,3-2.44,5.85-5.44,5.84-.18,0-.33-.16-.33-.34v-12.22c0-4.1,3.32-7.42,7.42-7.42h12.22c.18,0,.34.15.34.33,0,3-2.84,5.44-5.84,5.44Z"/><path class="cls-2" d="M168.52,14.33h-4.89c-1.92,0-3.48-1.56-3.48-3.48v-4.89c0-3-2.44-5.85-5.44-5.84-.18,0-.33.16-.33.34v12.22c0,4.1,3.32,7.42,7.42,7.42h12.22c.18,0,.34-.15.34-.33,0-3-2.84-5.44-5.84-5.44Z"/><path class="cls-2" d="M153.26,18.48c.73,1.09,1.64,2.01,2.73,2.73.85.54.85,1.18,0,1.72-1.09.73-2.01,1.64-2.73,2.73-.54.85-1.18.85-1.72,0-.73-1.09-1.64-2.01-2.73-2.73-.85-.54-.85-1.18,0-1.72,1.09-.73,2.01-1.64,2.73-2.73.55-.85,1.18-.85,1.72,0Z"/><path class="cls-1" d="M183.64,55.66c0,2.32-1.82,4.15-4.2,4.15s-4.22-1.82-4.22-4.15,1.88-4.1,4.22-4.1,4.2,1.83,4.2,4.1ZM176.27,55.66c0,1.82,1.35,3.27,3.2,3.27s3.12-1.45,3.12-3.25-1.32-3.3-3.15-3.3-3.17,1.47-3.17,3.27ZM178.79,57.81h-.95v-4.1c.38-.07.9-.12,1.57-.12.78,0,1.12.12,1.42.3.22.17.4.5.4.9,0,.45-.35.8-.85.95v.05c.4.15.62.45.75,1,.12.62.2.88.3,1.03h-1.02c-.12-.15-.2-.53-.33-1-.08-.45-.33-.65-.85-.65h-.45v1.65ZM178.82,55.48h.45c.52,0,.95-.18.95-.6,0-.38-.27-.62-.88-.62-.25,0-.42.03-.52.05v1.17Z"/></svg>